<?xml version="1.0" encoding="UTF-8"?>
<svg width="100" height="100" viewBox="0 0 100 100" fill="none" xmlns="http://www.w3.org/2000/svg">
  <path d="M85.0781 14.4219C75.7812 5.15625 63.5156 0 50.4688 0C22.8125 0 0.15625 22.6562 0.15625 50.3125C0.15625 59.2188 2.5 67.9688 6.875 75.625L0 100L25 93.2812C32.3438 97.2656 41.25 99.375 50.4688 99.375C78.125 99.375 100 76.7188 100 49.0625C100 36.0156 94.375 23.6875 85.0781 14.4219ZM50.4688 91.0938C42.8125 91.0938 34.6875 89.0625 27.6562 85.3125L26.25 84.5312L11.4062 88.5156L15.4688 74.0625L14.5312 72.5C10.3125 65.1562 8.125 57.0312 8.125 50.3125C8.125 27.0312 27.1875 7.96875 50.4688 7.96875C61.4844 7.96875 71.7969 12.3438 79.5312 20.0781C87.2656 27.8125 91.875 38.125 91.875 49.0625C91.875 72.3438 73.75 91.0938 50.4688 91.0938ZM73.2812 60.9375C72.0312 60.3125 65.8594 57.3438 64.6875 56.875C63.5156 56.4062 62.6562 56.25 61.7969 57.5C60.9375 58.75 58.5938 61.5625 57.8125 62.4219C57.0312 63.2812 56.25 63.4375 55 62.8125C53.75 62.1875 49.6875 60.7812 44.8438 56.4062C41.0938 53.125 38.5938 49.0625 37.8125 47.8125C37.0312 46.5625 37.7344 45.7812 38.4375 45.0781C39.0625 44.375 39.8438 43.2812 40.5469 42.5C41.25 41.7188 41.4062 41.0938 41.875 40.2344C42.3438 39.375 42.1875 38.5938 41.875 37.9688C41.5625 37.3438 38.9062 31.1719 37.8125 28.5938C36.7188 26.0938 35.625 26.4062 34.8438 26.4062C34.0625 26.4062 33.2031 26.4062 32.3438 26.4062C31.4844 26.4062 30.1562 26.7188 28.9844 27.9688C27.8125 29.2188 24.6875 32.1875 24.6875 38.3594C24.6875 44.5312 29.1406 50.4688 29.8438 51.3281C30.5469 52.1875 38.5938 64.6875 51.0938 69.8438C54.2188 71.25 56.7188 72.0312 58.5938 72.6562C61.7188 73.5938 64.5312 73.4375 66.7188 73.125C69.2188 72.8125 74.2188 70.1562 75.3125 67.1875C76.4062 64.2188 76.4062 61.7188 76.0938 61.25C75.7812 60.7812 74.5312 60.4688 73.2812 60.9375Z" fill="#128C7E"/>
</svg> 